<svg xmlns="http://www.w3.org/2000/svg" width="375" viewBox="0 0 375 375" height="375" version="1.0"><defs><clipPath id="a"><path d="M 108.113281 74.867188 L 267.113281 74.867188 L 267.113281 237.617188 L 108.113281 237.617188 Z M 108.113281 74.867188"/></clipPath></defs><g clip-path="url(#a)"><path d="M 187.613281 74.867188 C 143.808594 74.867188 108.175781 110.414062 108.175781 154.109375 C 108.160156 158.402344 108.5 162.664062 109.183594 166.902344 C 109.871094 171.136719 110.902344 175.289062 112.269531 179.355469 C 113.640625 183.421875 115.332031 187.351562 117.347656 191.144531 C 119.359375 194.933594 121.671875 198.535156 124.277344 201.949219 L 129.25 208.488281 L 164.992188 124.789062 L 178.441406 124.789062 L 130.265625 237.617188 L 140.640625 237.617188 L 147.167969 222.339844 C 153.285156 225.960938 159.777344 228.707031 166.640625 230.578125 C 173.507812 232.445312 180.496094 233.371094 187.613281 233.351562 C 231.417969 233.351562 267.054688 197.800781 267.054688 154.109375 C 267.054688 110.417969 231.417969 74.867188 187.613281 74.867188 Z M 187.613281 223.828125 C 181.136719 223.847656 174.785156 222.976562 168.554688 221.214844 C 162.324219 219.457031 156.457031 216.875 150.949219 213.476562 L 188.816406 124.789062 L 208.6875 124.789062 C 209.472656 124.789062 210.257812 124.828125 211.039062 124.902344 C 211.820312 124.980469 212.597656 125.097656 213.367188 125.25 C 214.136719 125.402344 214.898438 125.59375 215.652344 125.820312 C 216.402344 126.050781 217.140625 126.3125 217.867188 126.613281 C 218.59375 126.914062 219.304688 127.25 219.996094 127.617188 C 220.6875 127.988281 221.363281 128.390625 222.015625 128.824219 C 222.667969 129.261719 223.296875 129.726562 223.90625 130.226562 C 224.511719 130.722656 225.09375 131.25 225.648438 131.804688 C 226.203125 132.355469 226.730469 132.9375 227.230469 133.542969 C 227.726562 134.148438 228.195312 134.777344 228.632812 135.429688 C 229.066406 136.082031 229.472656 136.753906 229.839844 137.445312 C 230.210938 138.136719 230.546875 138.84375 230.847656 139.566406 C 231.148438 140.292969 231.414062 141.027344 231.640625 141.777344 C 231.867188 142.527344 232.058594 143.289062 232.210938 144.058594 C 232.367188 144.824219 232.480469 145.601562 232.558594 146.378906 C 232.636719 147.160156 232.671875 147.941406 232.671875 148.726562 C 232.671875 149.507812 232.636719 150.292969 232.558594 151.070312 C 232.480469 151.851562 232.367188 152.625 232.210938 153.394531 C 232.058594 154.164062 231.867188 154.921875 231.640625 155.671875 C 231.414062 156.421875 231.148438 157.160156 230.847656 157.882812 C 230.546875 158.609375 230.210938 159.316406 229.839844 160.007812 C 229.472656 160.699219 229.066406 161.371094 228.632812 162.019531 C 228.195312 162.671875 227.726562 163.300781 227.230469 163.90625 C 226.730469 164.511719 226.203125 165.09375 225.648438 165.648438 C 225.09375 166.203125 224.511719 166.726562 223.90625 167.226562 C 223.296875 167.722656 222.667969 168.1875 222.015625 168.625 C 221.363281 169.0625 220.6875 169.464844 219.996094 169.832031 C 219.304688 170.203125 218.59375 170.539062 217.867188 170.835938 C 217.140625 171.136719 216.402344 171.402344 215.652344 171.628906 C 214.898438 171.859375 214.136719 172.046875 213.367188 172.203125 C 212.597656 172.355469 211.820312 172.46875 211.039062 172.546875 C 210.257812 172.625 209.472656 172.664062 208.6875 172.664062 L 182.183594 172.664062 L 178.070312 182.183594 L 208.679688 182.183594 C 209.777344 182.183594 210.871094 182.128906 211.964844 182.023438 C 213.058594 181.914062 214.144531 181.753906 215.222656 181.539062 C 216.300781 181.328125 217.363281 181.0625 218.414062 180.742188 C 219.464844 180.425781 220.5 180.054688 221.511719 179.636719 C 222.527344 179.21875 223.519531 178.75 224.488281 178.234375 C 225.457031 177.714844 226.398438 177.152344 227.3125 176.546875 C 228.226562 175.9375 229.105469 175.285156 229.957031 174.589844 C 230.804688 173.894531 231.617188 173.160156 232.394531 172.386719 C 233.171875 171.609375 233.90625 170.800781 234.605469 169.953125 C 235.300781 169.105469 235.953125 168.226562 236.566406 167.316406 C 237.175781 166.402344 237.738281 165.464844 238.257812 164.5 C 238.773438 163.53125 239.242188 162.542969 239.664062 161.53125 C 240.085938 160.519531 240.453125 159.488281 240.773438 158.441406 C 241.089844 157.390625 241.359375 156.328125 241.574219 155.253906 C 241.785156 154.179688 241.949219 153.097656 242.054688 152.007812 C 242.164062 150.917969 242.21875 149.824219 242.21875 148.730469 C 242.21875 147.632812 242.164062 146.539062 242.054688 145.449219 C 241.949219 144.359375 241.785156 143.277344 241.574219 142.203125 C 241.359375 141.128906 241.089844 140.066406 240.773438 139.015625 C 240.453125 137.96875 240.085938 136.9375 239.664062 135.925781 C 239.242188 134.914062 238.773438 133.925781 238.257812 132.957031 C 237.738281 131.992188 237.175781 131.054688 236.566406 130.140625 C 235.953125 129.230469 235.300781 128.351562 234.605469 127.503906 C 233.90625 126.65625 233.171875 125.847656 232.394531 125.070312 C 231.617188 124.296875 230.804688 123.5625 229.957031 122.867188 C 229.105469 122.171875 228.226562 121.519531 227.3125 120.910156 C 226.398438 120.304688 225.457031 119.742188 224.488281 119.222656 C 223.519531 118.707031 222.527344 118.238281 221.511719 117.820312 C 220.5 117.402344 219.464844 117.03125 218.414062 116.714844 C 217.363281 116.394531 216.300781 116.128906 215.222656 115.917969 C 214.144531 115.703125 213.058594 115.542969 211.964844 115.433594 C 210.871094 115.328125 209.777344 115.273438 208.679688 115.273438 L 169.058594 115.273438 L 169.089844 115.1875 L 158.714844 115.1875 L 127.144531 189.113281 C 124.039062 183.804688 121.6875 178.179688 120.089844 172.238281 C 118.492188 166.300781 117.703125 160.257812 117.722656 154.109375 C 117.722656 115.667969 149.078125 84.390625 187.613281 84.390625 C 226.148438 84.390625 257.507812 115.667969 257.507812 154.109375 C 257.507812 192.554688 226.152344 223.828125 187.613281 223.828125 Z M 187.613281 223.828125"/></g><g><g><g><path d="M 16.890625 -30.625 C 19.597656 -30.625 21.953125 -30.171875 23.953125 -29.265625 C 25.953125 -28.359375 27.488281 -27.070312 28.5625 -25.40625 C 29.644531 -23.75 30.1875 -21.785156 30.1875 -19.515625 C 30.1875 -17.265625 29.644531 -15.300781 28.5625 -13.625 C 27.488281 -11.945312 25.953125 -10.660156 23.953125 -9.765625 C 21.953125 -8.878906 19.597656 -8.4375 16.890625 -8.4375 L 10.71875 -8.4375 L 10.71875 0 L 3.625 0 L 3.625 -30.625 Z M 16.5 -14.21875 C 18.625 -14.21875 20.238281 -14.675781 21.34375 -15.59375 C 22.457031 -16.507812 23.015625 -17.816406 23.015625 -19.515625 C 23.015625 -21.234375 22.457031 -22.550781 21.34375 -23.46875 C 20.238281 -24.382812 18.625 -24.84375 16.5 -24.84375 L 10.71875 -24.84375 L 10.71875 -14.21875 Z M 16.5 -14.21875" transform="translate(92.206 289.51)"/></g></g></g><g><g><g><path d="M 3.625 -30.625 L 10.71875 -30.625 L 10.71875 0 L 3.625 0 Z M 3.625 -30.625" transform="translate(129.955 289.51)"/></g></g></g><g><g><g><path d="M 9.96875 -24.84375 L 0.171875 -24.84375 L 0.171875 -30.625 L 26.859375 -30.625 L 26.859375 -24.84375 L 17.0625 -24.84375 L 17.0625 0 L 9.96875 0 Z M 9.96875 -24.84375" transform="translate(150.033 289.51)"/></g></g></g><g><g><g><path d="M 9.96875 -24.84375 L 0.171875 -24.84375 L 0.171875 -30.625 L 26.859375 -30.625 L 26.859375 -24.84375 L 17.0625 -24.84375 L 17.0625 0 L 9.96875 0 Z M 9.96875 -24.84375" transform="translate(182.796 289.51)"/></g></g></g><g><g><g><path d="M 27.34375 -5.6875 L 27.34375 0 L 3.625 0 L 3.625 -30.625 L 26.78125 -30.625 L 26.78125 -24.9375 L 10.671875 -24.9375 L 10.671875 -18.28125 L 24.890625 -18.28125 L 24.890625 -12.78125 L 10.671875 -12.78125 L 10.671875 -5.6875 Z M 27.34375 -5.6875" transform="translate(215.559 289.51)"/></g></g></g><g><g><g><path d="M 23.140625 0 L 17.234375 -8.53125 L 10.71875 -8.53125 L 10.71875 0 L 3.625 0 L 3.625 -30.625 L 16.890625 -30.625 C 19.597656 -30.625 21.953125 -30.171875 23.953125 -29.265625 C 25.953125 -28.359375 27.488281 -27.070312 28.5625 -25.40625 C 29.644531 -23.75 30.1875 -21.785156 30.1875 -19.515625 C 30.1875 -17.234375 29.640625 -15.269531 28.546875 -13.625 C 27.453125 -11.976562 25.898438 -10.71875 23.890625 -9.84375 L 30.75 0 Z M 23.015625 -19.515625 C 23.015625 -21.234375 22.457031 -22.550781 21.34375 -23.46875 C 20.238281 -24.382812 18.625 -24.84375 16.5 -24.84375 L 10.71875 -24.84375 L 10.71875 -14.171875 L 16.5 -14.171875 C 18.625 -14.171875 20.238281 -14.632812 21.34375 -15.5625 C 22.457031 -16.5 23.015625 -17.816406 23.015625 -19.515625 Z M 23.015625 -19.515625" transform="translate(250.64 289.51)"/></g></g></g></svg>