<svg xmlns="http://www.w3.org/2000/svg" width="375" viewBox="0 0 375 375" height="375" version="1.0"><defs><clipPath id="a"><path d="M 57.375 10.246094 L 317.625 10.246094 L 317.625 277.246094 L 57.375 277.246094 Z M 57.375 10.246094"/></clipPath></defs><g clip-path="url(#a)"><path d="M 187.496094 10.246094 C 115.800781 10.246094 57.472656 68.570312 57.472656 140.253906 C 57.453125 147.292969 58.003906 154.285156 59.128906 161.234375 C 60.253906 168.183594 61.9375 174.996094 64.175781 181.667969 C 66.417969 188.339844 69.1875 194.789062 72.484375 201.007812 C 75.785156 207.226562 79.566406 213.136719 83.832031 218.734375 L 91.96875 229.460938 L 150.46875 92.148438 L 172.484375 92.148438 L 93.632812 277.246094 L 110.617188 277.246094 L 121.292969 252.183594 C 126.28125 255.140625 131.441406 257.753906 136.777344 260.015625 C 142.113281 262.277344 147.578125 264.171875 153.171875 265.699219 C 158.765625 267.226562 164.433594 268.371094 170.179688 269.132812 C 175.925781 269.894531 181.699219 270.269531 187.496094 270.253906 C 259.191406 270.253906 317.523438 211.933594 317.523438 140.253906 C 317.523438 68.574219 259.191406 10.246094 187.496094 10.246094 Z M 187.496094 254.628906 C 182.222656 254.644531 176.972656 254.292969 171.75 253.574219 C 166.527344 252.855469 161.375 251.777344 156.300781 250.34375 C 151.226562 248.90625 146.277344 247.125 141.453125 245 C 136.625 242.871094 131.972656 240.421875 127.488281 237.644531 L 189.46875 92.148438 L 221.992188 92.148438 C 223.277344 92.148438 224.558594 92.210938 225.839844 92.335938 C 227.121094 92.464844 228.390625 92.652344 229.652344 92.90625 C 230.914062 93.15625 232.160156 93.46875 233.390625 93.84375 C 234.621094 94.214844 235.828125 94.648438 237.015625 95.140625 C 238.203125 95.632812 239.367188 96.183594 240.5 96.789062 C 241.632812 97.398438 242.734375 98.058594 243.804688 98.773438 C 244.871094 99.488281 245.90625 100.253906 246.898438 101.066406 C 247.890625 101.882812 248.84375 102.746094 249.753906 103.65625 C 250.660156 104.566406 251.523438 105.515625 252.339844 106.511719 C 253.15625 107.503906 253.921875 108.535156 254.636719 109.605469 C 255.347656 110.675781 256.007812 111.777344 256.617188 112.910156 C 257.222656 114.046875 257.769531 115.207031 258.261719 116.394531 C 258.753906 117.582031 259.1875 118.792969 259.558594 120.023438 C 259.933594 121.253906 260.246094 122.496094 260.496094 123.757812 C 260.746094 125.019531 260.933594 126.289062 261.0625 127.570312 C 261.1875 128.851562 261.25 130.132812 261.25 131.417969 C 261.25 132.703125 261.1875 133.988281 261.0625 135.265625 C 260.933594 136.546875 260.746094 137.816406 260.496094 139.078125 C 260.246094 140.339844 259.933594 141.585938 259.558594 142.816406 C 259.1875 144.046875 258.753906 145.253906 258.261719 146.441406 C 257.769531 147.628906 257.222656 148.792969 256.617188 149.925781 C 256.007812 151.058594 255.347656 152.160156 254.636719 153.230469 C 253.921875 154.300781 253.15625 155.332031 252.339844 156.324219 C 251.523438 157.320312 250.660156 158.269531 249.753906 159.179688 C 248.84375 160.089844 247.890625 160.953125 246.898438 161.769531 C 245.90625 162.585938 244.871094 163.351562 243.804688 164.066406 C 242.734375 164.777344 241.632812 165.441406 240.5 166.046875 C 239.367188 166.652344 238.203125 167.203125 237.015625 167.695312 C 235.828125 168.1875 234.621094 168.621094 233.390625 168.992188 C 232.160156 169.367188 230.914062 169.679688 229.652344 169.933594 C 228.390625 170.183594 227.121094 170.371094 225.839844 170.5 C 224.558594 170.625 223.277344 170.6875 221.992188 170.691406 L 178.609375 170.691406 L 171.875 186.308594 L 221.976562 186.308594 C 223.773438 186.308594 225.566406 186.21875 227.355469 186.042969 C 229.144531 185.867188 230.921875 185.605469 232.6875 185.253906 C 234.449219 184.902344 236.191406 184.464844 237.910156 183.945312 C 239.632812 183.421875 241.324219 182.816406 242.984375 182.128906 C 244.644531 181.441406 246.269531 180.675781 247.851562 179.828125 C 249.4375 178.980469 250.980469 178.058594 252.472656 177.058594 C 253.96875 176.058594 255.410156 174.988281 256.800781 173.851562 C 258.191406 172.710938 259.519531 171.503906 260.792969 170.234375 C 262.0625 168.960938 263.269531 167.632812 264.410156 166.242188 C 265.550781 164.851562 266.621094 163.410156 267.621094 161.914062 C 268.617188 160.421875 269.542969 158.882812 270.390625 157.296875 C 271.238281 155.710938 272.003906 154.085938 272.691406 152.425781 C 273.378906 150.765625 273.984375 149.074219 274.507812 147.355469 C 275.027344 145.636719 275.464844 143.894531 275.816406 142.128906 C 276.167969 140.367188 276.429688 138.59375 276.605469 136.804688 C 276.78125 135.015625 276.871094 133.222656 276.871094 131.421875 C 276.871094 129.625 276.78125 127.832031 276.605469 126.042969 C 276.429688 124.253906 276.167969 122.480469 275.816406 120.714844 C 275.464844 118.953125 275.027344 117.210938 274.507812 115.492188 C 273.984375 113.769531 273.378906 112.082031 272.691406 110.417969 C 272.003906 108.757812 271.238281 107.136719 270.390625 105.550781 C 269.542969 103.964844 268.617188 102.425781 267.621094 100.929688 C 266.621094 99.4375 265.550781 97.996094 264.410156 96.605469 C 263.269531 95.214844 262.0625 93.886719 260.792969 92.613281 C 259.519531 91.34375 258.191406 90.136719 256.800781 88.996094 C 255.410156 87.855469 253.96875 86.785156 252.472656 85.789062 C 250.980469 84.789062 249.4375 83.867188 247.851562 83.019531 C 246.269531 82.171875 244.644531 81.402344 242.984375 80.714844 C 241.324219 80.027344 239.632812 79.421875 237.910156 78.902344 C 236.191406 78.378906 234.449219 77.945312 232.6875 77.59375 C 230.921875 77.242188 229.144531 76.980469 227.355469 76.800781 C 225.566406 76.625 223.773438 76.539062 221.976562 76.539062 L 157.125 76.539062 L 157.179688 76.398438 L 140.199219 76.398438 L 88.519531 197.679688 C 85.992188 193.339844 83.761719 188.855469 81.828125 184.21875 C 79.898438 179.585938 78.28125 174.84375 76.976562 169.996094 C 75.675781 165.144531 74.699219 160.230469 74.050781 155.253906 C 73.402344 150.273438 73.085938 145.273438 73.097656 140.253906 C 73.097656 77.183594 124.421875 25.871094 187.496094 25.871094 C 250.570312 25.871094 301.898438 77.183594 301.898438 140.253906 C 301.898438 203.324219 250.578125 254.628906 187.496094 254.628906 Z M 187.496094 254.628906"/></g><g><g><g><path d="M 27.671875 -50.1875 C 32.117188 -50.1875 35.976562 -49.445312 39.25 -47.96875 C 42.53125 -46.488281 45.050781 -44.382812 46.8125 -41.65625 C 48.582031 -38.9375 49.46875 -35.710938 49.46875 -31.984375 C 49.46875 -28.296875 48.582031 -25.078125 46.8125 -22.328125 C 45.050781 -19.585938 42.53125 -17.488281 39.25 -16.03125 C 35.976562 -14.570312 32.117188 -13.84375 27.671875 -13.84375 L 17.5625 -13.84375 L 17.5625 0 L 5.953125 0 L 5.953125 -50.1875 Z M 27.03125 -23.296875 C 30.519531 -23.296875 33.171875 -24.050781 34.984375 -25.5625 C 36.804688 -27.070312 37.71875 -29.210938 37.71875 -31.984375 C 37.71875 -34.796875 36.804688 -36.957031 34.984375 -38.46875 C 33.171875 -39.976562 30.519531 -40.734375 27.03125 -40.734375 L 17.5625 -40.734375 L 17.5625 -23.296875 Z M 27.03125 -23.296875" transform="translate(31.298 362.084)"/></g></g></g><g><g><g><path d="M 5.953125 -50.1875 L 17.5625 -50.1875 L 17.5625 0 L 5.953125 0 Z M 5.953125 -50.1875" transform="translate(93.175 362.084)"/></g></g></g><g><g><g><path d="M 16.34375 -40.734375 L 0.28125 -40.734375 L 0.28125 -50.1875 L 44.03125 -50.1875 L 44.03125 -40.734375 L 27.96875 -40.734375 L 27.96875 0 L 16.34375 0 Z M 16.34375 -40.734375" transform="translate(126.086 362.084)"/></g></g></g><g><g><g><path d="M 16.34375 -40.734375 L 0.28125 -40.734375 L 0.28125 -50.1875 L 44.03125 -50.1875 L 44.03125 -40.734375 L 27.96875 -40.734375 L 27.96875 0 L 16.34375 0 Z M 16.34375 -40.734375" transform="translate(179.79 362.084)"/></g></g></g><g><g><g><path d="M 44.8125 -9.328125 L 44.8125 0 L 5.953125 0 L 5.953125 -50.1875 L 43.875 -50.1875 L 43.875 -40.875 L 17.5 -40.875 L 17.5 -29.96875 L 40.796875 -29.96875 L 40.796875 -20.9375 L 17.5 -20.9375 L 17.5 -9.328125 Z M 44.8125 -9.328125" transform="translate(233.493 362.084)"/></g></g></g><g><g><g><path d="M 37.9375 0 L 28.25 -13.984375 L 17.5625 -13.984375 L 17.5625 0 L 5.953125 0 L 5.953125 -50.1875 L 27.671875 -50.1875 C 32.117188 -50.1875 35.976562 -49.445312 39.25 -47.96875 C 42.53125 -46.488281 45.050781 -44.382812 46.8125 -41.65625 C 48.582031 -38.9375 49.46875 -35.710938 49.46875 -31.984375 C 49.46875 -28.253906 48.570312 -25.035156 46.78125 -22.328125 C 44.988281 -19.628906 42.445312 -17.566406 39.15625 -16.140625 L 50.40625 0 Z M 37.71875 -31.984375 C 37.71875 -34.796875 36.804688 -36.957031 34.984375 -38.46875 C 33.171875 -39.976562 30.519531 -40.734375 27.03125 -40.734375 L 17.5625 -40.734375 L 17.5625 -23.234375 L 27.03125 -23.234375 C 30.519531 -23.234375 33.171875 -24 34.984375 -25.53125 C 36.804688 -27.0625 37.71875 -29.210938 37.71875 -31.984375 Z M 37.71875 -31.984375" transform="translate(290.996 362.084)"/></g></g></g></svg>