<svg xmlns="http://www.w3.org/2000/svg" width="375" viewBox="0 0 375 375" height="375" version="1.0"><defs><clipPath id="a"><path d="M 124 89.691406 L 250.742188 89.691406 L 250.742188 220.191406 L 124 220.191406 Z M 124 89.691406"/></clipPath></defs><g clip-path="url(#a)"><path d="M 187.367188 89.691406 C 152.445312 89.691406 124.039062 118.199219 124.039062 153.234375 C 124.03125 156.675781 124.296875 160.09375 124.847656 163.488281 C 125.394531 166.886719 126.214844 170.214844 127.304688 173.476562 C 128.398438 176.738281 129.746094 179.890625 131.351562 182.929688 C 132.957031 185.96875 134.800781 188.855469 136.878906 191.59375 L 140.839844 196.835938 L 169.332031 129.722656 L 180.054688 129.722656 L 141.652344 220.191406 L 149.921875 220.191406 L 155.121094 207.941406 C 160 210.847656 165.175781 213.050781 170.648438 214.546875 C 176.121094 216.046875 181.691406 216.789062 187.367188 216.773438 C 222.285156 216.773438 250.691406 188.269531 250.691406 153.234375 C 250.691406 118.199219 222.285156 89.691406 187.367188 89.691406 Z M 187.367188 209.136719 C 182.203125 209.152344 177.140625 208.453125 172.171875 207.042969 C 167.207031 205.632812 162.527344 203.5625 158.140625 200.835938 L 188.324219 129.722656 L 204.164062 129.722656 C 204.792969 129.722656 205.417969 129.753906 206.039062 129.816406 C 206.664062 129.878906 207.28125 129.96875 207.894531 130.09375 C 208.511719 130.214844 209.117188 130.367188 209.714844 130.550781 C 210.316406 130.734375 210.90625 130.945312 211.484375 131.1875 C 212.0625 131.425781 212.628906 131.695312 213.179688 131.992188 C 213.730469 132.289062 214.269531 132.609375 214.789062 132.960938 C 215.308594 133.308594 215.8125 133.683594 216.296875 134.082031 C 216.78125 134.480469 217.242188 134.902344 217.6875 135.347656 C 218.128906 135.792969 218.550781 136.257812 218.945312 136.742188 C 219.34375 137.230469 219.714844 137.734375 220.0625 138.253906 C 220.410156 138.777344 220.734375 139.316406 221.027344 139.871094 C 221.324219 140.425781 221.589844 140.992188 221.832031 141.574219 C 222.070312 142.152344 222.28125 142.746094 222.460938 143.347656 C 222.644531 143.949219 222.796875 144.554688 222.917969 145.171875 C 223.039062 145.789062 223.132812 146.410156 223.195312 147.035156 C 223.253906 147.660156 223.285156 148.289062 223.285156 148.917969 C 223.285156 149.546875 223.253906 150.171875 223.195312 150.796875 C 223.132812 151.421875 223.039062 152.042969 222.917969 152.660156 C 222.796875 153.277344 222.644531 153.886719 222.460938 154.488281 C 222.28125 155.089844 222.070312 155.679688 221.832031 156.257812 C 221.589844 156.839844 221.324219 157.40625 221.027344 157.960938 C 220.734375 158.515625 220.410156 159.054688 220.0625 159.578125 C 219.714844 160.101562 219.34375 160.605469 218.945312 161.089844 C 218.550781 161.574219 218.128906 162.042969 217.6875 162.484375 C 217.242188 162.929688 216.78125 163.351562 216.296875 163.75 C 215.8125 164.148438 215.308594 164.523438 214.789062 164.871094 C 214.269531 165.222656 213.730469 165.546875 213.179688 165.839844 C 212.628906 166.136719 212.0625 166.40625 211.484375 166.648438 C 210.90625 166.886719 210.316406 167.097656 209.714844 167.28125 C 209.117188 167.464844 208.511719 167.617188 207.894531 167.742188 C 207.28125 167.863281 206.664062 167.957031 206.039062 168.019531 C 205.417969 168.078125 204.792969 168.109375 204.164062 168.109375 L 183.039062 168.109375 L 179.757812 175.746094 L 204.15625 175.746094 C 205.035156 175.746094 205.90625 175.703125 206.777344 175.617188 C 207.648438 175.53125 208.515625 175.402344 209.375 175.230469 C 210.234375 175.058594 211.082031 174.84375 211.917969 174.589844 C 212.757812 174.335938 213.582031 174.039062 214.390625 173.703125 C 215.199219 173.367188 215.988281 172.992188 216.761719 172.578125 C 217.535156 172.164062 218.285156 171.710938 219.011719 171.222656 C 219.738281 170.734375 220.441406 170.210938 221.117188 169.65625 C 221.796875 169.097656 222.445312 168.507812 223.0625 167.886719 C 223.683594 167.265625 224.269531 166.617188 224.824219 165.9375 C 225.378906 165.257812 225.902344 164.554688 226.386719 163.824219 C 226.875 163.09375 227.324219 162.339844 227.738281 161.566406 C 228.148438 160.789062 228.523438 159.996094 228.859375 159.183594 C 229.191406 158.371094 229.488281 157.546875 229.742188 156.707031 C 229.996094 155.867188 230.207031 155.015625 230.378906 154.152344 C 230.550781 153.289062 230.679688 152.421875 230.765625 151.546875 C 230.851562 150.675781 230.894531 149.796875 230.894531 148.917969 C 230.894531 148.039062 230.851562 147.164062 230.765625 146.289062 C 230.679688 145.414062 230.550781 144.546875 230.378906 143.683594 C 230.207031 142.824219 229.996094 141.972656 229.742188 141.132812 C 229.488281 140.292969 229.191406 139.464844 228.859375 138.652344 C 228.523438 137.839844 228.148438 137.046875 227.738281 136.273438 C 227.324219 135.5 226.875 134.746094 226.386719 134.015625 C 225.902344 133.285156 225.378906 132.578125 224.824219 131.902344 C 224.269531 131.222656 223.683594 130.570312 223.0625 129.949219 C 222.445312 129.328125 221.796875 128.738281 221.117188 128.183594 C 220.441406 127.625 219.738281 127.101562 219.011719 126.613281 C 218.285156 126.125 217.535156 125.675781 216.761719 125.261719 C 215.988281 124.847656 215.199219 124.472656 214.390625 124.136719 C 213.582031 123.800781 212.757812 123.503906 211.917969 123.25 C 211.082031 122.992188 210.234375 122.78125 209.375 122.609375 C 208.515625 122.4375 207.648438 122.308594 206.777344 122.222656 C 205.90625 122.136719 205.035156 122.09375 204.15625 122.09375 L 172.574219 122.09375 L 172.601562 122.023438 L 164.328125 122.023438 L 139.160156 181.300781 C 136.6875 177.042969 134.8125 172.53125 133.539062 167.769531 C 132.265625 163.011719 131.636719 158.164062 131.652344 153.234375 C 131.652344 122.410156 156.644531 97.328125 187.367188 97.328125 C 218.085938 97.328125 243.082031 122.410156 243.082031 153.234375 C 243.082031 184.0625 218.085938 209.136719 187.367188 209.136719 Z M 187.367188 209.136719"/></g><g><g><g><path d="M 13.515625 -24.5 C 15.679688 -24.5 17.5625 -24.132812 19.15625 -23.40625 C 20.757812 -22.6875 21.992188 -21.660156 22.859375 -20.328125 C 23.722656 -19.003906 24.15625 -17.429688 24.15625 -15.609375 C 24.15625 -13.816406 23.722656 -12.25 22.859375 -10.90625 C 21.992188 -9.5625 20.757812 -8.53125 19.15625 -7.8125 C 17.5625 -7.101562 15.679688 -6.75 13.515625 -6.75 L 8.578125 -6.75 L 8.578125 0 L 2.90625 0 L 2.90625 -24.5 Z M 13.1875 -11.375 C 14.894531 -11.375 16.191406 -11.738281 17.078125 -12.46875 C 17.960938 -13.207031 18.40625 -14.253906 18.40625 -15.609375 C 18.40625 -16.984375 17.960938 -18.035156 17.078125 -18.765625 C 16.191406 -19.503906 14.894531 -19.875 13.1875 -19.875 L 8.578125 -19.875 L 8.578125 -11.375 Z M 13.1875 -11.375" transform="translate(111.265 261.407)"/></g></g></g><g><g><g><path d="M 2.90625 -24.5 L 8.578125 -24.5 L 8.578125 0 L 2.90625 0 Z M 2.90625 -24.5" transform="translate(141.464 261.407)"/></g></g></g><g><g><g><path d="M 7.984375 -19.875 L 0.140625 -19.875 L 0.140625 -24.5 L 21.484375 -24.5 L 21.484375 -19.875 L 13.65625 -19.875 L 13.65625 0 L 7.984375 0 Z M 7.984375 -19.875" transform="translate(157.527 261.407)"/></g></g></g><g><g><g><path d="M 7.984375 -19.875 L 0.140625 -19.875 L 0.140625 -24.5 L 21.484375 -24.5 L 21.484375 -19.875 L 13.65625 -19.875 L 13.65625 0 L 7.984375 0 Z M 7.984375 -19.875" transform="translate(183.737 261.407)"/></g></g></g><g><g><g><path d="M 21.875 -4.546875 L 21.875 0 L 2.90625 0 L 2.90625 -24.5 L 21.421875 -24.5 L 21.421875 -19.953125 L 8.546875 -19.953125 L 8.546875 -14.625 L 19.921875 -14.625 L 19.921875 -10.21875 L 8.546875 -10.21875 L 8.546875 -4.546875 Z M 21.875 -4.546875" transform="translate(209.947 261.407)"/></g></g></g><g><g><g><path d="M 18.515625 0 L 13.796875 -6.828125 L 8.578125 -6.828125 L 8.578125 0 L 2.90625 0 L 2.90625 -24.5 L 13.515625 -24.5 C 15.679688 -24.5 17.5625 -24.132812 19.15625 -23.40625 C 20.757812 -22.6875 21.992188 -21.660156 22.859375 -20.328125 C 23.722656 -19.003906 24.15625 -17.429688 24.15625 -15.609375 C 24.15625 -13.785156 23.71875 -12.210938 22.84375 -10.890625 C 21.96875 -9.578125 20.722656 -8.570312 19.109375 -7.875 L 24.609375 0 Z M 18.40625 -15.609375 C 18.40625 -16.984375 17.960938 -18.035156 17.078125 -18.765625 C 16.191406 -19.503906 14.894531 -19.875 13.1875 -19.875 L 8.578125 -19.875 L 8.578125 -11.34375 L 13.1875 -11.34375 C 14.894531 -11.34375 16.191406 -11.710938 17.078125 -12.453125 C 17.960938 -13.203125 18.40625 -14.253906 18.40625 -15.609375 Z M 18.40625 -15.609375" transform="translate(238.012 261.407)"/></g></g></g></svg>